# xmcd
#
# Track frame offsets:
#	150
#	18435
#	37130
#	51755
#	72097
#	88350
#	107017
#	121050
#	133827
#	153934
#	171937
#	192355
#	208600
#	227257
#	248345
#	267215
#
# Disc length: 3800 seconds
#
# Revision: 1
# Processed by: cddbd v1.5.2PL0 Copyright (c) Steve Scherf et al.
# Submitted via: audiograbber 1.83.01
#
DISCID=d50ed610
DTITLE=Tantara - Rythme and Blues 2 2000
DYEAR=2000
DGENRE=Blues
TTITLE0=Fast Train - Simply Blue
TTITLE1=Turn You On - Liberty City
TTITLE2=Ain´t Got The Blues, The Blues Got Me - Mark Miller
TTITLE3=Sweet Talk Me - Sistah-blue
TTITLE4=Box - Sue Wilkinson
TTITLE5=No Little Love - Connie Emmerson
TTITLE6=What A Fool - Ryan Reardon
TTITLE7=Snatch And Grab It - Lady "a" Blues Band
TTITLE8=Indefintely - Billy Price
TTITLE9=Keeping In Your Heart - Simply Blue
TTITLE10=True Love - Mark Miller
TTITLE11=Mixin Mojo - Liberty City
TTITLE12=Me Without You - Sistah-blue
TTITLE13=What Is Love - Billy Price
TTITLE14=Walking In Golden Sunshine - Ryan Readon
TTITLE15=Prescriptson For The Blue - Oreo Blue
EXTD=
EXTT0=
EXTT1=
EXTT2=
EXTT3=
EXTT4=
EXTT5=
EXTT6=
EXTT7=
EXTT8=
EXTT9=
EXTT10=
EXTT11=
EXTT12=
EXTT13=
EXTT14=
EXTT15=
PLAYORDER=
